<?xml version="1.0" encoding="utf-8" ?>
<svg baseProfile="full" height="301" version="1.1" width="1029" xmlns="http://www.w3.org/2000/svg" xmlns:ev="http://www.w3.org/2001/xml-events" xmlns:xlink="http://www.w3.org/1999/xlink"><defs /><polygon fill="white" points="133.0,250.0 132.0,251.0 131.0,251.0 130.0,252.0 129.0,252.0 128.0,253.0 127.0,253.0 126.0,254.0 125.0,254.0 124.0,255.0 123.0,255.0 122.0,256.0 121.0,256.0 120.0,257.0 119.0,257.0 118.0,258.0 117.0,258.0 116.0,259.0 115.0,259.0 114.0,260.0 113.0,260.0 112.0,261.0 111.0,261.0 110.0,262.0 109.0,262.0 108.0,263.0 107.0,263.0 106.0,264.0 105.0,264.0 104.0,265.0 103.0,265.0 102.0,266.0 101.0,266.0 100.0,267.0 99.0,267.0 98.0,268.0 97.0,268.0 96.0,269.0 95.0,269.0 94.0,270.0 93.0,270.0 92.0,271.0 91.0,271.0 92.0,272.0 93.0,272.0 94.0,273.0 96.0,273.0 97.0,274.0 98.0,274.0 99.0,275.0 100.0,275.0 101.0,276.0 102.0,276.0 103.0,277.0 104.0,277.0 105.0,278.0 106.0,278.0 107.0,279.0 108.0,279.0 109.0,280.0 110.0,280.0 111.0,281.0 112.0,281.0 113.0,282.0 114.0,282.0 115.0,283.0 116.0,283.0 117.0,284.0 118.0,284.0 119.0,285.0 120.0,285.0 121.0,286.0 122.0,286.0 123.0,287.0 124.0,287.0 125.0,288.0 126.0,288.0 127.0,289.0 128.0,289.0 129.0,290.0 130.0,290.0 131.0,291.0 132.0,291.0 133.0,292.0 134.0,292.0 135.0,293.0 136.0,293.0 137.0,294.0 138.0,294.0 139.0,295.0 140.0,295.0 141.0,296.0 142.0,296.0 143.0,297.0 144.0,297.0 145.0,298.0 146.0,298.0 147.0,299.0 148.0,299.0 149.0,300.0 150.0,299.0 151.0,299.0 152.0,298.0 153.0,298.0 154.0,297.0 155.0,297.0 156.0,296.0 157.0,296.0 158.0,295.0 159.0,295.0 160.0,294.0 161.0,294.0 162.0,293.0 163.0,293.0 164.0,292.0 165.0,292.0 166.0,291.0 167.0,291.0 168.0,290.0 169.0,290.0 170.0,289.0 171.0,289.0 172.0,288.0 173.0,288.0 174.0,287.0 176.0,287.0 177.0,286.0 178.0,286.0 179.0,285.0 180.0,285.0 181.0,284.0 182.0,284.0 183.0,283.0 184.0,283.0 185.0,282.0 186.0,282.0 187.0,281.0 188.0,281.0 189.0,280.0 190.0,280.0 191.0,279.0 192.0,279.0 193.0,278.0 194.0,278.0 195.0,277.0 196.0,277.0 197.0,276.0 198.0,276.0 199.0,275.0 200.0,275.0 201.0,274.0 202.0,274.0 203.0,273.0 204.0,273.0 205.0,272.0 206.0,272.0 207.0,271.0 206.0,270.0 205.0,270.0 204.0,269.0 203.0,269.0 202.0,268.0 201.0,268.0 200.0,267.0 199.0,267.0 198.0,266.0 197.0,266.0 196.0,265.0 194.0,265.0 193.0,264.0 192.0,264.0 191.0,263.0 190.0,263.0 189.0,262.0 188.0,262.0 187.0,261.0 186.0,261.0 185.0,260.0 184.0,260.0 183.0,259.0 182.0,259.0 181.0,258.0 180.0,258.0 179.0,257.0 178.0,257.0 177.0,256.0 176.0,256.0 175.0,255.0 174.0,255.0 173.0,254.0 172.0,254.0 171.0,253.0 170.0,253.0 169.0,252.0 168.0,252.0 167.0,251.0 166.0,251.0 165.0,250.0 162.0,250.0 161.0,251.0 160.0,251.0 159.0,252.0 158.0,252.0 157.0,253.0 156.0,253.0 155.0,254.0 154.0,254.0 153.0,255.0 152.0,255.0 151.0,256.0 150.0,256.0 149.0,257.0 148.0,256.0 147.0,256.0 146.0,255.0 145.0,255.0 144.0,254.0 143.0,254.0 142.0,253.0 141.0,253.0 140.0,252.0 139.0,252.0 138.0,251.0 137.0,251.0 136.0,250.0" /><polygon fill="white" points="280.0,135.0 279.0,136.0 278.0,136.0 277.0,137.0 276.0,137.0 275.0,138.0 274.0,138.0 273.0,139.0 272.0,139.0 271.0,140.0 270.0,140.0 269.0,141.0 268.0,141.0 267.0,142.0 266.0,142.0 265.0,143.0 264.0,143.0 263.0,144.0 262.0,144.0 261.0,145.0 260.0,145.0 259.0,146.0 258.0,146.0 257.0,147.0 255.0,147.0 254.0,148.0 253.0,148.0 252.0,149.0 251.0,149.0 250.0,150.0 249.0,150.0 248.0,151.0 247.0,151.0 246.0,152.0 245.0,152.0 244.0,153.0 243.0,153.0 242.0,154.0 241.0,154.0 240.0,155.0 239.0,155.0 238.0,156.0 237.0,156.0 236.0,157.0 236.0,212.0 235.0,213.0 234.0,213.0 233.0,212.0 232.0,212.0 231.0,211.0 230.0,211.0 229.0,210.0 228.0,210.0 227.0,209.0 226.0,209.0 225.0,208.0 224.0,208.0 223.0,207.0 222.0,207.0 221.0,206.0 220.0,206.0 219.0,205.0 218.0,205.0 217.0,204.0 216.0,204.0 215.0,203.0 214.0,203.0 213.0,202.0 212.0,202.0 211.0,201.0 210.0,201.0 209.0,200.0 208.0,200.0 207.0,199.0 206.0,199.0 205.0,198.0 204.0,198.0 203.0,197.0 202.0,197.0 201.0,196.0 200.0,196.0 199.0,195.0 198.0,195.0 197.0,194.0 196.0,194.0 195.0,193.0 194.0,193.0 193.0,192.0 192.0,192.0 191.0,191.0 190.0,191.0 189.0,190.0 188.0,190.0 187.0,189.0 186.0,189.0 185.0,188.0 184.0,188.0 183.0,187.0 182.0,187.0 181.0,186.0 180.0,186.0 179.0,185.0 178.0,185.0 177.0,186.0 176.0,186.0 175.0,187.0 174.0,187.0 173.0,188.0 172.0,188.0 171.0,189.0 170.0,189.0 169.0,190.0 168.0,190.0 167.0,191.0 166.0,191.0 165.0,192.0 164.0,192.0 163.0,193.0 162.0,193.0 161.0,194.0 160.0,194.0 159.0,195.0 158.0,195.0 157.0,196.0 156.0,196.0 155.0,197.0 154.0,197.0 153.0,198.0 152.0,198.0 151.0,199.0 150.0,199.0 149.0,200.0 148.0,200.0 147.0,201.0 145.0,201.0 144.0,202.0 143.0,202.0 142.0,203.0 141.0,203.0 140.0,204.0 139.0,204.0 138.0,205.0 137.0,205.0 136.0,206.0 135.0,206.0 135.0,207.0 136.0,207.0 137.0,208.0 138.0,208.0 139.0,209.0 140.0,209.0 141.0,210.0 142.0,210.0 143.0,211.0 144.0,211.0 145.0,212.0 146.0,212.0 147.0,213.0 148.0,213.0 149.0,214.0 150.0,214.0 151.0,215.0 152.0,215.0 153.0,216.0 154.0,216.0 155.0,217.0 156.0,217.0 157.0,218.0 158.0,218.0 159.0,219.0 160.0,219.0 161.0,220.0 162.0,220.0 163.0,221.0 164.0,221.0 165.0,222.0 166.0,222.0 167.0,223.0 168.0,223.0 169.0,224.0 170.0,224.0 171.0,225.0 172.0,225.0 173.0,226.0 174.0,226.0 175.0,227.0 176.0,227.0 177.0,228.0 179.0,228.0 180.0,229.0 181.0,229.0 182.0,230.0 183.0,230.0 184.0,231.0 185.0,231.0 186.0,232.0 187.0,232.0 188.0,233.0 189.0,233.0 190.0,234.0 191.0,234.0 192.0,235.0 193.0,235.0 194.0,236.0 195.0,236.0 196.0,237.0 197.0,237.0 198.0,238.0 199.0,238.0 200.0,239.0 201.0,239.0 202.0,240.0 203.0,240.0 204.0,241.0 205.0,241.0 206.0,242.0 207.0,242.0 208.0,243.0 209.0,243.0 210.0,244.0 211.0,244.0 212.0,245.0 213.0,245.0 214.0,246.0 215.0,246.0 216.0,247.0 217.0,247.0 218.0,248.0 219.0,248.0 220.0,249.0 221.0,249.0 222.0,250.0 223.0,250.0 224.0,251.0 225.0,251.0 226.0,252.0 227.0,252.0 228.0,253.0 229.0,253.0 230.0,254.0 231.0,254.0 232.0,255.0 233.0,255.0 234.0,256.0 235.0,256.0 236.0,257.0 237.0,257.0 238.0,256.0 239.0,256.0 240.0,255.0 241.0,255.0 242.0,254.0 243.0,254.0 244.0,253.0 245.0,253.0 246.0,252.0 247.0,252.0 248.0,251.0 249.0,251.0 250.0,250.0 251.0,250.0 252.0,249.0 253.0,249.0 254.0,248.0 255.0,248.0 256.0,247.0 257.0,247.0 258.0,246.0 259.0,246.0 260.0,245.0 261.0,245.0 262.0,244.0 263.0,244.0 264.0,243.0 265.0,243.0 266.0,242.0 267.0,242.0 268.0,241.0 269.0,241.0 270.0,240.0 271.0,240.0 272.0,239.0 273.0,239.0 274.0,238.0 275.0,238.0 276.0,237.0 277.0,237.0 278.0,236.0 279.0,236.0 280.0,235.0" /><polygon fill="white" points="235.0,43.0 234.0,44.0 233.0,44.0 232.0,45.0 231.0,45.0 230.0,46.0 229.0,46.0 228.0,47.0 227.0,47.0 226.0,48.0 225.0,48.0 224.0,49.0 223.0,49.0 222.0,50.0 221.0,50.0 220.0,51.0 219.0,51.0 218.0,52.0 217.0,52.0 216.0,53.0 215.0,53.0 214.0,54.0 213.0,54.0 212.0,55.0 211.0,55.0 210.0,56.0 209.0,56.0 208.0,57.0 207.0,57.0 206.0,58.0 205.0,58.0 204.0,59.0 203.0,59.0 202.0,60.0 201.0,60.0 200.0,61.0 199.0,61.0 198.0,62.0 197.0,62.0 196.0,63.0 194.0,63.0 193.0,64.0 194.0,65.0 196.0,65.0 197.0,66.0 198.0,66.0 199.0,67.0 200.0,67.0 201.0,68.0 202.0,68.0 203.0,69.0 204.0,69.0 205.0,70.0 206.0,70.0 207.0,71.0 208.0,71.0 209.0,72.0 210.0,72.0 211.0,73.0 212.0,73.0 213.0,74.0 214.0,74.0 215.0,75.0 216.0,75.0 217.0,76.0 218.0,76.0 219.0,77.0 220.0,77.0 221.0,78.0 222.0,78.0 223.0,79.0 224.0,79.0 225.0,80.0 226.0,80.0 227.0,81.0 228.0,81.0 229.0,82.0 230.0,82.0 231.0,83.0 232.0,83.0 233.0,84.0 234.0,84.0 235.0,85.0 233.0,87.0 232.0,87.0 231.0,88.0 230.0,88.0 229.0,89.0 228.0,89.0 227.0,90.0 226.0,90.0 225.0,91.0 224.0,91.0 223.0,92.0 222.0,92.0 221.0,93.0 220.0,93.0 219.0,94.0 218.0,94.0 217.0,95.0 216.0,95.0 215.0,96.0 214.0,96.0 213.0,97.0 212.0,97.0 211.0,98.0 210.0,98.0 209.0,99.0 208.0,99.0 207.0,100.0 206.0,100.0 205.0,101.0 204.0,101.0 203.0,102.0 202.0,102.0 201.0,103.0 200.0,103.0 199.0,104.0 198.0,104.0 197.0,105.0 196.0,105.0 195.0,106.0 194.0,106.0 193.0,107.0 192.0,107.0 191.0,108.0 190.0,108.0 189.0,109.0 187.0,109.0 186.0,110.0 185.0,110.0 184.0,111.0 183.0,111.0 182.0,112.0 181.0,112.0 180.0,113.0 179.0,113.0 178.0,114.0 177.0,114.0 176.0,115.0 175.0,115.0 174.0,116.0 173.0,116.0 172.0,117.0 171.0,117.0 170.0,118.0 169.0,118.0 168.0,119.0 167.0,119.0 166.0,120.0 165.0,120.0 164.0,121.0 163.0,121.0 162.0,122.0 161.0,122.0 160.0,123.0 159.0,123.0 158.0,124.0 157.0,124.0 156.0,125.0 155.0,125.0 154.0,126.0 153.0,126.0 152.0,127.0 151.0,127.0 150.0,128.0 149.0,128.0 148.0,129.0 147.0,129.0 146.0,130.0 145.0,130.0 144.0,131.0 143.0,131.0 142.0,132.0 141.0,132.0 140.0,133.0 139.0,133.0 138.0,134.0 137.0,134.0 136.0,135.0 135.0,135.0 134.0,136.0 133.0,136.0 132.0,137.0 131.0,137.0 130.0,138.0 129.0,138.0 128.0,139.0 126.0,139.0 125.0,140.0 124.0,140.0 123.0,141.0 122.0,141.0 121.0,142.0 120.0,142.0 119.0,143.0 118.0,143.0 117.0,144.0 116.0,144.0 115.0,145.0 114.0,145.0 113.0,146.0 112.0,146.0 111.0,147.0 110.0,147.0 109.0,148.0 108.0,148.0 107.0,149.0 106.0,149.0 105.0,150.0 104.0,150.0 103.0,151.0 102.0,151.0 101.0,152.0 100.0,152.0 99.0,153.0 98.0,153.0 97.0,154.0 96.0,154.0 95.0,155.0 94.0,155.0 93.0,156.0 92.0,156.0 91.0,157.0 90.0,157.0 89.0,158.0 88.0,158.0 87.0,159.0 86.0,159.0 85.0,160.0 84.0,160.0 83.0,161.0 82.0,161.0 81.0,162.0 80.0,162.0 79.0,163.0 78.0,163.0 77.0,164.0 76.0,164.0 75.0,165.0 74.0,165.0 73.0,166.0 72.0,166.0 71.0,167.0 70.0,167.0 69.0,168.0 68.0,168.0 67.0,169.0 66.0,169.0 65.0,170.0 63.0,170.0 62.0,171.0 61.0,171.0 60.0,172.0 59.0,172.0 58.0,173.0 57.0,173.0 56.0,174.0 55.0,174.0 54.0,175.0 53.0,175.0 52.0,176.0 51.0,176.0 50.0,177.0 49.0,177.0 48.0,178.0 47.0,178.0 46.0,179.0 45.0,179.0 44.0,180.0 43.0,180.0 42.0,181.0 41.0,181.0 40.0,182.0 39.0,182.0 38.0,183.0 37.0,183.0 36.0,184.0 35.0,184.0 34.0,185.0 33.0,185.0 32.0,186.0 31.0,186.0 30.0,187.0 29.0,187.0 28.0,188.0 27.0,188.0 26.0,189.0 25.0,189.0 24.0,190.0 23.0,190.0 22.0,191.0 21.0,191.0 20.0,192.0 19.0,192.0 19.0,236.0 20.0,236.0 21.0,237.0 22.0,237.0 23.0,238.0 24.0,238.0 25.0,239.0 26.0,239.0 27.0,240.0 28.0,240.0 29.0,241.0 31.0,241.0 32.0,242.0 33.0,242.0 34.0,243.0 35.0,243.0 36.0,244.0 37.0,244.0 38.0,245.0 39.0,245.0 40.0,246.0 41.0,246.0 42.0,247.0 43.0,247.0 44.0,248.0 45.0,248.0 46.0,249.0 47.0,249.0 48.0,250.0 49.0,250.0 50.0,251.0 51.0,251.0 52.0,252.0 53.0,252.0 54.0,253.0 55.0,253.0 56.0,254.0 57.0,254.0 58.0,255.0 59.0,255.0 60.0,256.0 61.0,256.0 62.0,257.0 63.0,256.0 64.0,256.0 65.0,255.0 66.0,255.0 67.0,254.0 68.0,254.0 69.0,253.0 70.0,253.0 71.0,252.0 72.0,252.0 73.0,251.0 74.0,251.0 75.0,250.0 76.0,250.0 77.0,249.0 79.0,249.0 80.0,248.0 81.0,248.0 82.0,247.0 83.0,247.0 84.0,246.0 85.0,246.0 86.0,245.0 87.0,245.0 88.0,244.0 89.0,244.0 90.0,243.0 91.0,243.0 92.0,242.0 93.0,242.0 94.0,241.0 95.0,241.0 96.0,240.0 97.0,240.0 98.0,239.0 99.0,239.0 100.0,238.0 101.0,238.0 102.0,237.0 103.0,237.0 104.0,236.0 105.0,236.0 106.0,235.0 105.0,235.0 104.0,234.0 102.0,234.0 101.0,233.0 100.0,233.0 99.0,232.0 98.0,232.0 97.0,231.0 96.0,231.0 95.0,230.0 94.0,230.0 93.0,229.0 92.0,229.0 91.0,228.0 90.0,228.0 89.0,227.0 88.0,227.0 87.0,226.0 86.0,226.0 85.0,225.0 84.0,225.0 83.0,224.0 82.0,224.0 81.0,223.0 80.0,223.0 79.0,222.0 78.0,222.0 77.0,221.0 76.0,221.0 75.0,220.0 74.0,220.0 73.0,219.0 72.0,219.0 71.0,218.0 70.0,218.0 69.0,217.0 68.0,217.0 67.0,216.0 66.0,216.0 65.0,215.0 64.0,215.0 63.0,214.0 64.0,213.0 65.0,213.0 66.0,212.0 67.0,212.0 68.0,211.0 69.0,211.0 70.0,210.0 71.0,210.0 72.0,209.0 73.0,209.0 74.0,208.0 75.0,208.0 76.0,207.0 77.0,207.0 78.0,206.0 79.0,206.0 80.0,205.0 81.0,205.0 82.0,204.0 83.0,204.0 84.0,203.0 85.0,203.0 86.0,202.0 87.0,202.0 88.0,201.0 89.0,201.0 90.0,200.0 91.0,200.0 92.0,199.0 93.0,199.0 94.0,198.0 95.0,198.0 96.0,197.0 97.0,197.0 98.0,196.0 99.0,196.0 100.0,195.0 101.0,195.0 102.0,194.0 103.0,194.0 104.0,193.0 105.0,193.0 106.0,192.0 107.0,192.0 108.0,191.0 109.0,191.0 110.0,190.0 111.0,190.0 112.0,189.0 113.0,189.0 114.0,188.0 115.0,188.0 116.0,187.0 118.0,187.0 119.0,186.0 120.0,186.0 121.0,185.0 122.0,185.0 123.0,184.0 124.0,184.0 125.0,183.0 126.0,183.0 127.0,182.0 128.0,182.0 129.0,181.0 130.0,181.0 131.0,180.0 132.0,180.0 133.0,179.0 134.0,179.0 135.0,178.0 136.0,178.0 137.0,177.0 138.0,177.0 139.0,176.0 140.0,176.0 141.0,175.0 142.0,175.0 143.0,174.0 144.0,174.0 145.0,173.0 146.0,173.0 147.0,172.0 148.0,172.0 149.0,171.0 150.0,171.0 151.0,170.0 152.0,170.0 153.0,169.0 154.0,169.0 155.0,168.0 156.0,168.0 157.0,167.0 158.0,167.0 159.0,166.0 160.0,166.0 161.0,165.0 162.0,165.0 163.0,164.0 164.0,164.0 165.0,163.0 166.0,163.0 167.0,162.0 168.0,162.0 169.0,161.0 170.0,161.0 171.0,160.0 172.0,160.0 173.0,159.0 174.0,159.0 175.0,158.0 176.0,158.0 177.0,157.0 178.0,157.0 179.0,156.0 180.0,156.0 181.0,155.0 183.0,155.0 184.0,154.0 185.0,154.0 186.0,153.0 187.0,153.0 188.0,152.0 189.0,152.0 190.0,151.0 191.0,151.0 192.0,150.0 193.0,150.0 194.0,149.0 195.0,149.0 196.0,148.0 197.0,148.0 198.0,147.0 199.0,147.0 200.0,146.0 201.0,146.0 202.0,145.0 203.0,145.0 204.0,144.0 205.0,144.0 206.0,143.0 207.0,143.0 208.0,142.0 209.0,142.0 210.0,141.0 211.0,141.0 212.0,140.0 213.0,140.0 214.0,139.0 215.0,139.0 216.0,138.0 217.0,138.0 218.0,137.0 219.0,137.0 220.0,136.0 221.0,136.0 222.0,135.0 223.0,135.0 224.0,134.0 225.0,134.0 226.0,133.0 227.0,133.0 228.0,132.0 229.0,132.0 230.0,131.0 231.0,131.0 232.0,130.0 233.0,130.0 234.0,129.0 235.0,129.0 236.0,128.0 237.0,128.0 238.0,127.0 239.0,127.0 240.0,126.0 241.0,126.0 242.0,125.0 243.0,125.0 244.0,124.0 246.0,124.0 247.0,123.0 248.0,123.0 249.0,122.0 250.0,122.0 251.0,121.0 252.0,121.0 253.0,120.0 254.0,120.0 255.0,119.0 256.0,119.0 257.0,118.0 258.0,118.0 259.0,117.0 260.0,117.0 261.0,116.0 262.0,116.0 263.0,115.0 264.0,115.0 265.0,114.0 266.0,114.0 267.0,113.0 268.0,113.0 269.0,112.0 270.0,112.0 271.0,111.0 272.0,111.0 273.0,110.0 274.0,110.0 275.0,109.0 276.0,109.0 277.0,108.0 278.0,108.0 279.0,107.0 280.0,107.0 280.0,64.0 279.0,63.0 278.0,63.0 277.0,62.0 276.0,62.0 275.0,61.0 274.0,61.0 273.0,60.0 272.0,60.0 271.0,59.0 270.0,59.0 269.0,58.0 268.0,58.0 267.0,57.0 266.0,57.0 265.0,56.0 264.0,56.0 263.0,55.0 262.0,55.0 261.0,54.0 260.0,54.0 259.0,53.0 258.0,53.0 257.0,52.0 256.0,52.0 255.0,51.0 254.0,51.0 253.0,50.0 252.0,50.0 251.0,49.0 250.0,49.0 249.0,48.0 248.0,48.0 247.0,47.0 246.0,47.0 245.0,46.0 244.0,46.0 243.0,45.0 242.0,45.0 241.0,44.0 240.0,44.0 239.0,43.0" /><polygon fill="white" points="60.0,43.0 59.0,44.0 58.0,44.0 57.0,45.0 56.0,45.0 55.0,46.0 54.0,46.0 53.0,47.0 52.0,47.0 51.0,48.0 50.0,48.0 49.0,49.0 48.0,49.0 47.0,50.0 46.0,50.0 45.0,51.0 44.0,51.0 43.0,52.0 42.0,52.0 41.0,53.0 40.0,53.0 39.0,54.0 38.0,54.0 37.0,55.0 36.0,55.0 35.0,56.0 34.0,56.0 33.0,57.0 32.0,57.0 31.0,58.0 30.0,58.0 29.0,59.0 28.0,59.0 27.0,60.0 26.0,60.0 25.0,61.0 24.0,61.0 23.0,62.0 22.0,62.0 21.0,63.0 20.0,63.0 19.0,64.0 19.0,164.0 20.0,163.0 21.0,163.0 22.0,162.0 23.0,162.0 24.0,161.0 25.0,161.0 26.0,160.0 27.0,160.0 28.0,159.0 29.0,159.0 30.0,158.0 31.0,158.0 32.0,157.0 33.0,157.0 34.0,156.0 35.0,156.0 36.0,155.0 37.0,155.0 38.0,154.0 39.0,154.0 40.0,153.0 41.0,153.0 42.0,152.0 44.0,152.0 45.0,151.0 46.0,151.0 47.0,150.0 48.0,150.0 49.0,149.0 50.0,149.0 51.0,148.0 52.0,148.0 53.0,147.0 54.0,147.0 55.0,146.0 56.0,146.0 57.0,145.0 58.0,145.0 59.0,144.0 60.0,144.0 61.0,143.0 62.0,143.0 62.0,87.0 63.0,86.0 64.0,86.0 65.0,87.0 66.0,87.0 67.0,88.0 68.0,88.0 69.0,89.0 70.0,89.0 71.0,90.0 72.0,90.0 73.0,91.0 74.0,91.0 75.0,92.0 76.0,92.0 77.0,93.0 78.0,93.0 79.0,94.0 80.0,94.0 81.0,95.0 82.0,95.0 83.0,96.0 84.0,96.0 85.0,97.0 86.0,97.0 87.0,98.0 88.0,98.0 89.0,99.0 90.0,99.0 91.0,100.0 92.0,100.0 93.0,101.0 94.0,101.0 95.0,102.0 96.0,102.0 97.0,103.0 98.0,103.0 99.0,104.0 101.0,104.0 102.0,105.0 103.0,105.0 104.0,106.0 105.0,106.0 106.0,107.0 107.0,107.0 108.0,108.0 109.0,108.0 110.0,109.0 111.0,109.0 112.0,110.0 113.0,110.0 114.0,111.0 115.0,111.0 116.0,112.0 117.0,112.0 118.0,113.0 119.0,113.0 120.0,114.0 121.0,114.0 122.0,113.0 123.0,113.0 124.0,112.0 125.0,112.0 126.0,111.0 127.0,111.0 128.0,110.0 129.0,110.0 130.0,109.0 131.0,109.0 132.0,108.0 133.0,108.0 134.0,107.0 135.0,107.0 136.0,106.0 137.0,106.0 138.0,105.0 139.0,105.0 140.0,104.0 141.0,104.0 142.0,103.0 143.0,103.0 144.0,102.0 145.0,102.0 146.0,101.0 147.0,101.0 148.0,100.0 149.0,100.0 150.0,99.0 151.0,99.0 152.0,98.0 153.0,98.0 154.0,97.0 155.0,97.0 156.0,96.0 157.0,96.0 158.0,95.0 159.0,95.0 160.0,94.0 161.0,94.0 162.0,93.0 163.0,93.0 164.0,92.0 162.0,92.0 161.0,91.0 160.0,91.0 159.0,90.0 158.0,90.0 157.0,89.0 156.0,89.0 155.0,88.0 154.0,88.0 153.0,87.0 152.0,87.0 151.0,86.0 150.0,86.0 149.0,85.0 148.0,85.0 147.0,84.0 146.0,84.0 145.0,83.0 144.0,83.0 143.0,82.0 142.0,82.0 141.0,81.0 140.0,81.0 139.0,80.0 138.0,80.0 137.0,79.0 136.0,79.0 135.0,78.0 134.0,78.0 133.0,77.0 132.0,77.0 131.0,76.0 130.0,76.0 129.0,75.0 128.0,75.0 127.0,74.0 126.0,74.0 125.0,73.0 124.0,73.0 123.0,72.0 122.0,72.0 121.0,71.0 120.0,71.0 119.0,70.0 118.0,70.0 117.0,69.0 116.0,69.0 115.0,68.0 114.0,68.0 113.0,67.0 112.0,67.0 111.0,66.0 110.0,66.0 109.0,65.0 108.0,65.0 107.0,64.0 105.0,64.0 104.0,63.0 103.0,63.0 102.0,62.0 101.0,62.0 100.0,61.0 99.0,61.0 98.0,60.0 97.0,60.0 96.0,59.0 95.0,59.0 94.0,58.0 93.0,58.0 92.0,57.0 91.0,57.0 90.0,56.0 89.0,56.0 88.0,55.0 87.0,55.0 86.0,54.0 85.0,54.0 84.0,53.0 83.0,53.0 82.0,52.0 81.0,52.0 80.0,51.0 79.0,51.0 78.0,50.0 77.0,50.0 76.0,49.0 75.0,49.0 74.0,48.0 73.0,48.0 72.0,47.0 71.0,47.0 70.0,46.0 69.0,46.0 68.0,45.0 67.0,45.0 66.0,44.0 65.0,44.0 64.0,43.0" /><polygon fill="white" points="148.0,0.0 147.0,1.0 146.0,1.0 145.0,2.0 144.0,2.0 143.0,3.0 142.0,3.0 141.0,4.0 140.0,4.0 139.0,5.0 137.0,5.0 136.0,6.0 135.0,6.0 134.0,7.0 133.0,7.0 132.0,8.0 131.0,8.0 130.0,9.0 129.0,9.0 128.0,10.0 127.0,10.0 126.0,11.0 125.0,11.0 124.0,12.0 123.0,12.0 122.0,13.0 121.0,13.0 120.0,14.0 119.0,14.0 118.0,15.0 117.0,15.0 116.0,16.0 115.0,16.0 114.0,17.0 113.0,17.0 112.0,18.0 111.0,18.0 110.0,19.0 109.0,19.0 108.0,20.0 107.0,20.0 106.0,21.0 105.0,21.0 104.0,22.0 103.0,22.0 102.0,23.0 101.0,23.0 100.0,24.0 99.0,24.0 98.0,25.0 97.0,25.0 96.0,26.0 95.0,26.0 94.0,27.0 93.0,27.0 92.0,28.0 91.0,28.0 92.0,29.0 93.0,29.0 94.0,30.0 95.0,30.0 96.0,31.0 97.0,31.0 98.0,32.0 99.0,32.0 100.0,33.0 101.0,33.0 102.0,34.0 103.0,34.0 104.0,35.0 105.0,35.0 106.0,36.0 107.0,36.0 108.0,37.0 109.0,37.0 110.0,38.0 112.0,38.0 113.0,39.0 114.0,39.0 115.0,40.0 116.0,40.0 117.0,41.0 118.0,41.0 119.0,42.0 120.0,42.0 121.0,43.0 122.0,43.0 123.0,44.0 124.0,44.0 125.0,45.0 126.0,45.0 127.0,46.0 128.0,46.0 129.0,47.0 130.0,47.0 131.0,48.0 132.0,48.0 133.0,49.0 134.0,49.0 135.0,50.0 136.0,49.0 137.0,49.0 138.0,48.0 139.0,48.0 140.0,47.0 141.0,47.0 142.0,46.0 143.0,46.0 144.0,45.0 145.0,45.0 146.0,44.0 147.0,44.0 148.0,43.0 151.0,43.0 152.0,44.0 153.0,44.0 154.0,45.0 155.0,45.0 156.0,46.0 157.0,46.0 158.0,47.0 159.0,47.0 160.0,48.0 161.0,48.0 162.0,49.0 166.0,49.0 167.0,48.0 168.0,48.0 169.0,47.0 170.0,47.0 171.0,46.0 172.0,46.0 173.0,45.0 174.0,45.0 175.0,44.0 176.0,44.0 177.0,43.0 178.0,43.0 179.0,42.0 180.0,42.0 181.0,41.0 182.0,41.0 183.0,40.0 184.0,40.0 185.0,39.0 186.0,39.0 187.0,38.0 188.0,38.0 189.0,37.0 190.0,37.0 191.0,36.0 192.0,36.0 193.0,35.0 194.0,35.0 195.0,34.0 196.0,34.0 197.0,33.0 198.0,33.0 199.0,32.0 200.0,32.0 201.0,31.0 202.0,31.0 203.0,30.0 204.0,30.0 205.0,29.0 206.0,29.0 207.0,28.0 206.0,27.0 205.0,27.0 204.0,26.0 203.0,26.0 202.0,25.0 201.0,25.0 200.0,24.0 199.0,24.0 198.0,23.0 197.0,23.0 196.0,22.0 195.0,22.0 194.0,21.0 193.0,21.0 192.0,20.0 191.0,20.0 190.0,19.0 189.0,19.0 188.0,18.0 186.0,18.0 185.0,17.0 184.0,17.0 183.0,16.0 182.0,16.0 181.0,15.0 180.0,15.0 179.0,14.0 178.0,14.0 177.0,13.0 176.0,13.0 175.0,12.0 174.0,12.0 173.0,11.0 172.0,11.0 171.0,10.0 170.0,10.0 169.0,9.0 168.0,9.0 167.0,8.0 166.0,8.0 165.0,7.0 164.0,7.0 163.0,6.0 162.0,6.0 161.0,5.0 160.0,5.0 159.0,4.0 158.0,4.0 157.0,3.0 156.0,3.0 155.0,2.0 154.0,2.0 153.0,1.0 152.0,1.0 151.0,0.0" /></svg>